<?xml version="1.0" standalone="no"?>
<!DOCTYPE svg PUBLIC "-//W3C//DTD SVG 20010904//EN"
 "http://www.w3.org/TR/2001/REC-SVG-20010904/DTD/svg10.dtd">
<svg version="1.0" xmlns="http://www.w3.org/2000/svg"
 width="1363.000000pt" height="1426.000000pt" viewBox="0 0 1363.000000 1426.000000"
 preserveAspectRatio="xMidYMid meet">

<g transform="translate(0.000000,1426.000000) scale(0.100000,-0.100000)"
fill="#000000" stroke="none">
<path d="M7697 13986 c-61 -18 -147 -70 -193 -117 -50 -51 -56 -92 -38 -269
23 -237 17 -310 -26 -310 -24 0 -24 -3 -5 -40 17 -33 15 -52 -20 -150 -48
-135 -90 -232 -197 -450 -61 -124 -199 -413 -308 -642 -109 -230 -218 -451
-243 -490 -68 -110 -91 -128 -182 -143 -127 -22 -193 -82 -236 -213 -31 -94
-70 -128 -242 -212 -175 -84 -498 -213 -1355 -540 l-664 -253 -143 71 c-184
91 -217 120 -249 221 -24 76 -92 404 -161 781 -75 410 -129 617 -175 675 -55
69 -33 136 86 266 41 44 74 86 74 93 0 26 -70 284 -95 349 -45 120 -82 185
-117 203 -49 26 -177 15 -246 -20 -116 -59 -190 -164 -179 -251 19 -133 131
-236 273 -250 122 -13 128 -23 69 -115 -44 -70 -44 -100 0 -165 32 -45 36 -59
39 -130 5 -104 46 -345 156 -910 130 -675 131 -684 62 -821 -45 -91 -66 -176
-56 -231 16 -90 88 -181 187 -238 71 -41 95 -78 107 -166 19 -148 124 -482
158 -503 18 -11 24 114 13 266 -6 81 -11 194 -11 251 0 90 3 108 21 131 11 14
27 26 34 26 23 0 81 77 120 158 20 42 54 100 75 128 33 44 50 56 107 77 37 14
122 46 188 71 328 122 1392 533 1555 600 181 75 284 106 358 106 39 0 184 -30
292 -61 66 -19 125 -51 214 -115 28 -19 59 -34 70 -32 31 4 32 55 2 127 -33
78 -33 120 4 266 36 145 37 159 4 202 -14 18 -32 49 -40 69 -14 32 -14 40 0
75 48 119 144 326 265 569 75 151 158 325 184 387 47 110 90 204 107 233 21
37 190 439 200 477 6 24 21 55 34 70 23 27 26 27 202 38 100 6 189 17 202 23
27 16 28 33 1 98 -29 69 -21 102 46 205 68 106 81 155 65 246 -29 171 -133
276 -287 288 -34 2 -78 -1 -106 -9z"/>
<path d="M10471 11883 c-53 -54 -143 -163 -201 -242 -58 -79 -154 -207 -215
-284 -60 -77 -143 -183 -184 -236 -40 -53 -139 -181 -219 -285 l-145 -188 -86
6 c-113 9 -287 9 -336 1 -178 -30 -287 -117 -375 -299 -83 -172 -74 -265 40
-389 86 -94 406 -325 547 -393 l52 -26 83 58 c176 123 276 255 318 420 38 149
23 263 -56 412 -53 101 -52 111 13 191 25 31 54 74 63 96 10 22 49 81 88 130
38 50 123 158 188 240 146 186 202 265 237 333 14 29 67 110 115 180 105 150
164 249 186 315 20 59 20 57 -1 57 -9 0 -60 -44 -112 -97z"/>
<path d="M7050 10230 c0 -28 183 -326 572 -933 245 -382 248 -386 248 -422 0
-68 -103 -189 -563 -668 l-210 -218 -196 7 c-188 6 -199 6 -245 -15 -57 -25
-207 -166 -231 -218 -21 -44 -21 -137 1 -331 l15 -145 -38 -41 c-21 -22 -112
-117 -203 -211 -91 -94 -203 -213 -249 -265 -47 -52 -236 -257 -420 -455 -185
-198 -385 -413 -444 -477 l-108 -116 -127 45 c-218 76 -313 129 -337 187 -16
39 -101 426 -194 886 -147 727 -282 1266 -345 1380 -17 29 -21 21 -30 -53 -6
-52 -30 -105 -82 -180 -42 -60 -43 -84 -7 -98 82 -33 93 -40 113 -79 12 -24
32 -111 51 -222 16 -100 53 -294 80 -432 28 -138 53 -262 56 -276 2 -14 27
-131 55 -260 27 -129 76 -356 108 -505 l57 -270 -122 -125 c-67 -69 -130 -139
-139 -157 -21 -43 -20 -110 4 -228 35 -169 27 -197 -76 -255 -30 -18 -67 -47
-82 -67 -34 -43 -59 -56 -247 -128 -82 -32 -283 -114 -445 -183 -302 -127
-600 -244 -657 -256 -25 -6 -32 -4 -37 11 -27 85 -64 1309 -47 1530 10 128 14
143 35 143 33 0 98 106 125 206 22 82 31 182 22 253 -17 135 2 167 265 442
175 183 334 362 355 402 15 26 -23 22 -58 -7 -75 -62 -113 -62 -190 3 -160
132 -362 323 -998 941 -909 883 -1005 969 -1005 902 0 -27 48 -97 136 -197 94
-107 504 -526 735 -750 453 -441 1099 -1078 1098 -1084 -1 -9 -334 -302 -399
-352 -86 -65 -145 -88 -251 -98 -52 -6 -111 -16 -131 -23 -104 -37 -182 -134
-193 -238 -9 -90 -24 -139 -57 -189 -43 -63 -234 -257 -527 -535 -334 -316
-541 -544 -541 -593 0 -54 115 41 954 786 233 206 261 219 352 159 67 -45 91
-85 98 -161 3 -34 11 -345 16 -692 6 -346 14 -745 20 -885 51 -1333 68 -1643
96 -1709 15 -34 16 -35 30 -17 8 11 14 25 14 30 1 6 5 43 11 81 7 40 14 336
18 696 l6 626 27 40 c62 94 88 109 703 403 198 95 406 192 463 216 196 84 238
84 340 1 75 -61 141 -107 153 -107 5 0 6 13 3 29 -5 23 -2 32 14 40 48 26 215
3 382 -52 114 -37 205 -42 260 -13 55 30 197 177 220 229 42 95 50 336 19 578
-11 86 -11 89 14 131 51 87 360 446 578 673 58 60 179 189 269 285 197 209
463 469 541 528 l56 42 128 -10 c75 -6 140 -17 157 -26 36 -19 60 -58 94 -154
75 -210 198 -536 304 -805 234 -595 350 -925 350 -999 0 -40 -7 -59 -40 -108
-46 -69 -58 -108 -70 -224 -14 -136 -33 -163 -329 -479 -218 -232 -331 -358
-326 -363 2 -3 30 12 62 31 76 47 224 172 403 342 80 75 172 155 204 176 54
35 65 39 125 39 119 0 243 -40 261 -83 5 -12 28 -70 50 -129 46 -119 59 -137
84 -113 22 22 20 92 -4 185 -34 129 -29 172 35 296 71 139 74 159 41 228 -32
65 -89 119 -182 174 -90 52 -138 105 -182 201 -19 42 -99 254 -177 471 -79
217 -164 451 -190 520 -64 172 -225 623 -265 744 -40 121 -37 132 54 265 40
57 70 112 78 143 7 31 21 56 35 65 33 22 112 40 298 69 94 14 241 36 328 50
86 13 280 42 430 64 726 105 1173 197 1342 276 l60 29 -55 3 c-167 11 -885
-73 -1745 -203 -549 -83 -688 -98 -713 -73 -7 7 -12 29 -12 49 0 81 153 271
580 719 366 384 543 583 588 662 17 29 56 82 88 118 32 36 70 85 86 109 29 47
37 91 16 91 -25 0 -127 -86 -313 -263 -189 -180 -249 -223 -290 -213 -27 7
-95 80 -95 102 0 79 -350 580 -644 921 -109 127 -206 213 -206 183z"/>
<path d="M12543 9123 c-34 -20 -150 -104 -257 -187 -194 -151 -275 -206 -334
-228 -27 -10 -42 -9 -104 12 -190 61 -387 24 -478 -92 -58 -72 -79 -153 -89
-330 -8 -131 -11 -152 -34 -191 -33 -56 -122 -140 -393 -369 -437 -370 -542
-478 -467 -478 50 0 238 133 583 415 212 173 321 248 382 267 33 10 50 9 101
-5 34 -10 112 -29 172 -42 61 -14 121 -33 135 -43 36 -27 80 -103 151 -265 34
-78 77 -173 95 -212 138 -297 195 -423 258 -580 111 -273 175 -413 332 -725
163 -324 198 -383 233 -388 22 -3 23 -1 18 27 -4 17 -43 125 -88 239 -45 114
-91 248 -104 297 -27 109 -102 295 -225 555 -50 107 -134 299 -185 425 -51
127 -135 325 -185 440 -51 116 -100 228 -110 250 l-17 41 62 83 c84 111 105
175 114 352 10 184 14 191 261 444 205 209 284 301 274 316 -10 17 -39 9 -101
-28z"/>
<path d="M10340 6592 c0 -36 56 -255 119 -462 47 -158 49 -166 31 -180 -10 -8
-48 -37 -83 -65 -113 -87 -182 -219 -206 -398 -20 -141 7 -252 91 -380 45 -69
52 -85 51 -128 -1 -61 -49 -165 -189 -406 -185 -319 -279 -443 -340 -443 -16
0 -52 -11 -81 -24 -98 -46 -149 -151 -164 -336 -5 -63 -13 -135 -19 -160 -19
-80 -112 -258 -290 -555 -255 -426 -354 -575 -382 -575 -20 0 -142 283 -333
770 -106 269 -218 509 -259 553 -19 20 -34 27 -54 25 -25 -3 -27 -6 -25 -43 1
-22 32 -132 68 -245 69 -215 75 -231 185 -505 37 -93 101 -260 140 -370 40
-110 88 -243 107 -295 50 -135 48 -164 -18 -281 -29 -52 -94 -161 -144 -244
-128 -209 -243 -412 -305 -534 -63 -126 -126 -228 -148 -240 -9 -5 -14 -13
-10 -17 17 -16 80 27 174 121 84 83 126 137 250 325 259 390 438 677 559 895
39 72 126 225 192 340 120 211 198 351 268 480 87 162 109 201 124 219 34 39
123 73 239 90 124 18 164 14 218 -26 17 -13 195 -189 395 -392 415 -421 532
-530 537 -498 7 42 -87 192 -236 380 -110 140 -209 249 -387 432 -190 195
-211 228 -225 370 -11 99 -29 189 -54 259 -28 76 -21 120 32 223 26 51 110
199 187 329 l140 237 170 4 c156 3 175 5 233 30 104 43 172 89 258 173 88 86
105 119 145 274 31 121 20 220 -38 340 -81 167 -321 323 -519 338 -100 8 -125
25 -168 116 -44 90 -136 362 -136 400 0 54 -42 107 -84 107 -11 0 -16 -9 -16
-28z"/>
<path d="M4924 4107 c-9 -24 54 -239 156 -537 167 -483 400 -1161 530 -1540
149 -434 277 -783 325 -887 55 -119 100 -156 150 -119 15 11 17 21 12 58 -11
81 -191 633 -349 1073 -89 248 -130 366 -141 415 -6 23 26 59 281 322 410 421
551 578 586 646 20 39 16 47 -18 38 -59 -15 -235 -165 -621 -530 -132 -125
-251 -230 -264 -233 -45 -11 -78 50 -184 342 -101 278 -201 524 -286 701 -110
227 -159 297 -177 251z"/>
<path d="M7820 1113 c-136 -23 -330 -137 -330 -194 0 -17 5 -19 34 -14 30 6
36 4 48 -22 14 -29 32 -33 76 -19 36 12 27 -21 -23 -88 -64 -84 -88 -155 -82
-236 5 -74 22 -113 74 -171 80 -88 247 -140 344 -107 44 15 126 67 161 103 42
42 69 126 71 219 1 93 -3 102 -80 189 -67 74 -102 147 -110 224 -7 69 -17 91
-46 102 -31 11 -107 19 -137 14z"/>
</g>
</svg>
